<svg xmlns="http://www.w3.org/2000/svg" width="500" height="500" viewBox="0 0 500 500">
<g>
<path d="M 201.77 272.87 L 201.50 292.50 L 195.96 292.79 C192.91,292.96 190.10,292.77 189.71,292.38 C189.32,291.99 189.00,269.47 189.00,242.33 L 189.00 193.00 L 207.75 193.01 C235.74,193.02 242.86,194.67 250.28,202.89 C255.14,208.27 257.39,216.07 256.78,225.42 C256.25,233.63 254.39,237.83 248.67,243.76 C242.10,250.58 236.47,252.22 217.77,252.77 L 202.04 253.24 ZM 306.78 292.45 C300.94,294.89 289.58,294.49 283.50,291.63 C280.75,290.34 277.73,288.42 276.79,287.36 C269.30,278.92 270.87,262.22 279.67,256.74 C285.75,252.95 286.74,252.74 301.50,252.10 L 315.50 251.50 L 315.83 247.00 C316.66,235.51 312.77,231.99 299.28,232.01 C293.08,232.02 290.40,232.53 286.10,234.53 C283.14,235.91 280.63,236.92 280.53,236.77 C274.84,228.24 275.08,227.30 283.84,223.84 C288.50,222.00 291.54,221.60 301.00,221.55 C311.33,221.51 313.01,221.75 317.50,224.00 C321.19,225.85 323.15,227.68 325.00,231.00 L 327.50 235.50 L 327.50 292.50 L 322.60 292.81 C317.29,293.15 316.04,292.25 316.02,288.06 L 316.00 285.63 L 313.25 288.26 C311.74,289.71 308.83,291.59 306.78,292.45 ZM 114.14 325.25 C113.09,327.89 112.77,328.00 105.91,328.00 C105.17,328.00 104.50,328.02 103.89,328.03 C101.87,328.08 100.54,328.11 99.92,327.47 C98.73,326.25 100.03,322.61 103.81,312.07 C104.41,310.40 105.07,308.54 105.80,306.50 C109.12,297.15 114.54,281.85 117.84,272.50 C121.15,263.15 130.01,238.18 137.53,217.00 C145.06,195.82 153.04,173.21 155.27,166.75 L 159.33 155.00 L 174.73 155.00 L 166.44 178.25 C161.88,191.04 153.20,215.45 147.16,232.50 C141.11,249.55 133.60,270.70 130.46,279.50 C127.33,288.30 122.62,301.58 119.99,309.00 C117.37,316.42 114.73,323.74 114.14,325.25 ZM 462.00 291.92 C455.43,294.89 441.79,294.77 433.00,291.66 C426.65,289.42 418.00,284.44 418.00,283.03 C418.00,281.97 424.13,275.00 425.06,275.00 C425.50,275.00 428.03,276.34 430.68,277.97 C443.37,285.78 459.02,284.99 462.63,276.35 C464.49,271.88 463.06,266.80 459.47,265.17 C458.11,264.55 452.52,263.37 447.05,262.56 C427.98,259.70 422.00,254.80 422.00,242.01 C422.00,231.80 426.27,226.03 436.36,222.60 C441.68,220.79 451.34,220.55 457.89,222.06 C463.48,223.35 473.01,227.99 472.97,229.41 C472.96,230.01 471.67,232.04 470.10,233.93 L 467.26 237.36 L 461.88 234.96 C457.57,233.04 454.78,232.55 447.83,232.53 C440.02,232.50 438.91,232.74 436.58,234.92 C434.02,237.33 433.19,241.74 434.62,245.46 C435.69,248.24 440.55,249.96 451.36,251.37 C464.37,253.06 470.30,255.71 473.01,261.01 C479.19,273.14 474.52,286.26 462.00,291.92 ZM 390.51 291.65 C383.78,294.78 370.31,294.90 361.59,291.90 C356.07,290.00 346.00,284.23 346.00,282.97 C346.00,282.66 347.74,280.71 349.87,278.63 L 353.73 274.85 L 358.99 278.09 C371.11,285.55 386.34,285.04 390.48,277.03 C394.74,268.81 389.62,263.93 375.27,262.52 C362.23,261.24 354.21,257.15 351.36,250.33 C349.57,246.04 349.63,237.83 351.48,233.39 C356.70,220.90 378.24,217.10 395.75,225.60 C398.64,227.00 401.00,228.69 401.00,229.36 C401.00,230.03 399.74,232.09 398.20,233.93 L 395.39 237.29 L 388.52 234.55 C382.73,232.23 380.52,231.86 374.39,232.17 C365.71,232.60 362.00,235.13 362.00,240.59 C362.00,247.89 364.55,249.43 380.01,251.46 C396.89,253.68 402.34,257.65 403.64,268.65 C404.83,278.72 399.96,287.25 390.51,291.65 ZM 202.75 240.45 C203.16,240.88 209.80,241.02 217.50,240.77 C232.60,240.27 235.29,239.51 240.19,234.34 C245.15,229.11 245.68,218.07 241.26,212.14 C237.02,206.45 233.85,205.53 217.25,205.16 L 202.00 204.82 L 202.00 222.24 C202.00,231.83 202.34,240.02 202.75,240.45 ZM 84.76 243.25 L 84.50 288.50 L 79.96 288.80 C77.47,288.96 75.10,288.77 74.71,288.38 C74.32,287.99 74.00,270.82 74.00,250.23 C74.00,216.74 73.84,212.85 72.44,213.38 C71.59,213.71 67.99,216.05 64.44,218.58 C57.21,223.74 56.67,223.51 57.19,215.40 L 57.50 210.55 L 66.38 204.27 C74.35,198.65 75.77,198.00 80.14,198.00 L 85.02 198.00 ZM 291.31 282.96 C295.51,284.25 305.27,283.43 309.07,281.46 C313.93,278.95 316.08,274.48 315.77,267.56 L 315.50 261.63 L 304.02 261.89 C287.59,262.28 284.00,264.23 284.00,272.80 C284.00,277.60 286.88,281.59 291.31,282.96 Z" fill="rgb(29,53,49)"/>
<path d="M 0.00 250.00 L 0.00 0.00 L 250.00 0.00 L 500.00 0.00 L 500.00 250.00 L 500.00 500.00 L 250.00 500.00 L 0.00 500.00 L 0.00 250.00 ZM 114.14 325.25 C114.73,323.74 117.37,316.42 119.99,309.00 C122.62,301.58 127.33,288.30 130.46,279.50 C133.60,270.70 141.11,249.55 147.16,232.50 C153.20,215.45 161.88,191.04 166.44,178.25 L 174.73 155.00 L 167.03 155.00 L 159.33 155.00 L 155.27 166.75 C153.04,173.21 145.06,195.82 137.53,217.00 C130.01,238.18 121.15,263.15 117.84,272.50 C114.54,281.85 109.12,297.15 105.80,306.50 C97.38,330.22 97.37,328.00 105.91,328.00 C112.77,328.00 113.09,327.89 114.14,325.25 ZM 306.78 292.45 C308.83,291.59 311.74,289.71 313.25,288.26 L 316.00 285.63 L 316.02 288.06 C316.04,292.25 317.29,293.15 322.60,292.81 L 327.50 292.50 L 327.50 264.00 L 327.50 235.50 L 325.00 231.00 C323.15,227.68 321.19,225.85 317.50,224.00 C313.01,221.75 311.33,221.51 301.00,221.55 C291.54,221.60 288.50,222.00 283.84,223.84 C275.08,227.30 274.84,228.24 280.53,236.77 C280.63,236.92 283.14,235.91 286.10,234.53 C290.40,232.53 293.08,232.02 299.28,232.01 C312.77,231.99 316.66,235.51 315.83,247.00 L 315.50 251.50 L 301.50 252.10 C286.74,252.74 285.75,252.95 279.67,256.74 C270.87,262.22 269.30,278.92 276.79,287.36 C277.73,288.42 280.75,290.34 283.50,291.63 C289.58,294.49 300.94,294.89 306.78,292.45 ZM 390.51 291.65 C399.96,287.25 404.83,278.72 403.64,268.65 C402.34,257.65 396.89,253.68 380.01,251.46 C364.55,249.43 362.00,247.89 362.00,240.59 C362.00,235.13 365.71,232.60 374.39,232.17 C380.52,231.86 382.73,232.23 388.52,234.55 L 395.39 237.29 L 398.20 233.93 C399.74,232.09 401.00,230.03 401.00,229.36 C401.00,228.69 398.64,227.00 395.75,225.60 C378.24,217.10 356.70,220.90 351.48,233.39 C349.63,237.83 349.57,246.04 351.36,250.33 C354.21,257.15 362.23,261.24 375.27,262.52 C389.62,263.93 394.74,268.81 390.48,277.03 C386.34,285.04 371.11,285.55 358.99,278.09 L 353.73 274.85 L 349.87 278.63 C347.74,280.71 346.00,282.66 346.00,282.97 C346.00,284.23 356.07,290.00 361.59,291.90 C370.31,294.90 383.78,294.78 390.51,291.65 ZM 462.00 291.92 C474.52,286.26 479.19,273.14 473.01,261.01 C470.30,255.71 464.37,253.06 451.36,251.37 C440.55,249.96 435.69,248.24 434.62,245.46 C433.19,241.74 434.02,237.33 436.58,234.92 C438.91,232.74 440.02,232.50 447.83,232.53 C454.78,232.55 457.57,233.04 461.88,234.96 L 467.26 237.36 L 470.10 233.93 C471.67,232.04 472.96,230.01 472.97,229.41 C473.01,227.99 463.48,223.35 457.89,222.06 C451.34,220.55 441.68,220.79 436.36,222.60 C426.27,226.03 422.00,231.80 422.00,242.01 C422.00,254.80 427.98,259.70 447.05,262.56 C452.52,263.37 458.11,264.55 459.47,265.17 C463.06,266.80 464.49,271.88 462.63,276.35 C459.02,284.99 443.37,285.78 430.68,277.97 C428.03,276.34 425.50,275.00 425.06,275.00 C424.13,275.00 418.00,281.97 418.00,283.03 C418.00,284.44 426.65,289.42 433.00,291.66 C441.79,294.77 455.43,294.89 462.00,291.92 ZM 201.77 272.87 L 202.04 253.24 L 217.77 252.77 C236.47,252.22 242.10,250.58 248.67,243.76 C254.39,237.83 256.25,233.63 256.78,225.42 C257.39,216.07 255.14,208.27 250.28,202.89 C242.86,194.67 235.74,193.02 207.75,193.01 L 189.00 193.00 L 189.00 242.33 C189.00,269.47 189.32,291.99 189.71,292.38 C190.10,292.77 192.91,292.96 195.96,292.79 L 201.50 292.50 L 201.77 272.87 ZM 84.76 243.25 L 85.02 198.00 L 80.14 198.00 C75.77,198.00 74.35,198.65 66.38,204.27 L 57.50 210.55 L 57.19 215.40 C56.67,223.51 57.21,223.74 64.44,218.58 C67.99,216.05 71.59,213.71 72.44,213.38 C73.84,212.85 74.00,216.74 74.00,250.23 C74.00,270.82 74.32,287.99 74.71,288.38 C75.10,288.77 77.47,288.96 79.96,288.80 L 84.50 288.50 L 84.76 243.25 ZM 291.31 282.96 C286.88,281.59 284.00,277.60 284.00,272.80 C284.00,264.23 287.59,262.28 304.02,261.89 L 315.50 261.63 L 315.77 267.56 C316.08,274.48 313.93,278.95 309.07,281.46 C305.27,283.43 295.51,284.25 291.31,282.96 ZM 202.75 240.45 C202.34,240.02 202.00,231.83 202.00,222.24 L 202.00 204.82 L 217.25 205.16 C233.85,205.53 237.02,206.45 241.26,212.14 C245.68,218.07 245.15,229.11 240.19,234.34 C235.29,239.51 232.60,240.27 217.50,240.77 C209.80,241.02 203.16,240.88 202.75,240.45 Z" fill="rgb(246,246,246)"/>
</g>
</svg>